# xmcd
#
# Track frame offsets: 
#        150
#        23490
#        42022
#        67712
#        85215
#        107077
#        126067
#        147747
#        169012
#        189062
#        209810
#        233055
#        251855
#        274982
#        285717
#        304515
#
# Disc length: 4344 seconds
#
# Revision: 6
# Processed by: cddbd v1.5.2PL0 Copyright (c) Steve Scherf et al.
# Submitted via: ExactAudioCopy v1.0b3
#
DISCID=df10f610
DTITLE=矢沢永吉 - LIVE DECADE 1990-1999 [CD2]
DYEAR=2000
DGENRE=Japanese Rock
TTITLE0=ゴールド・ラッシュ
TTITLE1=セクシー・キャット
TTITLE2=あの娘と暮らせない
TTITLE3=アリよさらば
TTITLE4=AZABU
TTITLE5=SOMEBODY'S NIGHT
TTITLE6=ROCK ME TONIGHT
TTITLE7=時間よ止まれ
TTITLE8=ニュー・グランド・ホテル
TTITLE9=Still
TTITLE10=YES MY LOVE
TTITLE11=黒く塗りつぶせ
TTITLE12=止まらないHa〜Ha
TTITLE13=ファンキー・モンキー・ベイビー
TTITLE14=トラベリン・バス
TTITLE15=アイ・ラヴ・ユー，OK
EXTD=YEAR: 2000
EXTT0=
EXTT1=
EXTT2=
EXTT3=
EXTT4=
EXTT5=
EXTT6=
EXTT7=
EXTT8=
EXTT9=
EXTT10=
EXTT11=
EXTT12=
EXTT13=
EXTT14=
EXTT15=
PLAYORDER=
